<svg xmlns="http://www.w3.org/2000/svg" width="1200" height="800" viewBox="0 0 1200 800">
<defs><marker id="arrow" viewBox="0 0 10 10" refX="9" refY="5" markerWidth="8" markerHeight="8" orient="auto-start-reverse"><path d="M 0 0 L 10 5 L 0 10 z" fill="#1e1e1e"/></marker></defs>
<rect width="1200" height="800" fill="#ffffff"/>
<text x="60" y="55" font-family="Arial, sans-serif" font-size="30" fill="#1e1e1e">RideLog — Rider Profile Screen</text>
<rect x="60" y="100" width="700" height="600" rx="8" fill="none" stroke="#1e1e1e" stroke-width="3"/>
<rect x="60" y="100" width="700" height="45" rx="8" fill="#f1f3f5" stroke="#1e1e1e" stroke-width="2"/>
<rect x="175" y="111" width="455" height="22" rx="7" fill="#ffffff" stroke="#1e1e1e"/>
<rect x="100" y="170" width="620" height="60" rx="8" fill="#d0ebff" stroke="#1e1e1e" stroke-width="2"/>
<text x="125" y="207" font-family="Arial, sans-serif" font-size="22" fill="#1e1e1e">RideLog</text>
<line x1="760" y1="115" x2="880" y2="78" stroke="#1e1e1e" stroke-width="2" marker-end="url(#arrow)"/>
<text x="900" y="84" font-family="Arial, sans-serif" font-size="22" fill="#1e1e1e">browser</text>
<line x1="720" y1="200" x2="880" y2="188" stroke="#1e1e1e" stroke-width="2" marker-end="url(#arrow)"/>
<text x="900" y="194" font-family="Arial, sans-serif" font-size="22" fill="#1e1e1e">navbar</text>
<rect x="120" y="260" width="380" height="120" rx="8" fill="#e7f5ff" stroke="#1e1e1e" stroke-width="2"/>
<line x1="500" y1="320" x2="880" y2="287" stroke="#1e1e1e" stroke-width="2" marker-end="url(#arrow)"/>
<text x="900" y="297" font-family="Arial, sans-serif" font-size="22" fill="#1e1e1e">profile information</text>
<rect x="540" y="285" width="160" height="50" rx="8" fill="#e7f5ff" stroke="#1e1e1e" stroke-width="2"/>
<line x1="700" y1="310" x2="880" y2="357" stroke="#1e1e1e" stroke-width="2" marker-end="url(#arrow)"/>
<text x="900" y="367" font-family="Arial, sans-serif" font-size="22" fill="#1e1e1e">friend action</text>
<rect x="120" y="420" width="220" height="190" rx="8" fill="#e7f5ff" stroke="#1e1e1e" stroke-width="2"/>
<line x1="340" y1="515" x2="880" y2="452" stroke="#1e1e1e" stroke-width="2" marker-end="url(#arrow)"/>
<text x="900" y="462" font-family="Arial, sans-serif" font-size="22" fill="#1e1e1e">friends list</text>
<rect x="375" y="420" width="325" height="190" rx="8" fill="#e7f5ff" stroke="#1e1e1e" stroke-width="2"/>
<line x1="700" y1="515" x2="880" y2="547" stroke="#1e1e1e" stroke-width="2" marker-end="url(#arrow)"/>
<text x="900" y="557" font-family="Arial, sans-serif" font-size="22" fill="#1e1e1e">ride history</text>
</svg>
