<svg xmlns="http://www.w3.org/2000/svg" width="1200" height="800" viewBox="0 0 1200 800">
<defs><marker id="arrow" viewBox="0 0 10 10" refX="9" refY="5" markerWidth="8" markerHeight="8" orient="auto-start-reverse"><path d="M 0 0 L 10 5 L 0 10 z" fill="#1e1e1e"/></marker></defs>
<rect width="1200" height="800" fill="#ffffff"/>
<text x="60" y="55" font-family="Arial, sans-serif" font-size="30" fill="#1e1e1e">RideLog — Create / Edit Ride Screen</text>
<rect x="60" y="100" width="700" height="600" rx="8" fill="none" stroke="#1e1e1e" stroke-width="3"/>
<rect x="60" y="100" width="700" height="45" rx="8" fill="#f1f3f5" stroke="#1e1e1e" stroke-width="2"/>
<rect x="175" y="111" width="455" height="22" rx="7" fill="#ffffff" stroke="#1e1e1e"/>
<rect x="100" y="170" width="620" height="60" rx="8" fill="#d0ebff" stroke="#1e1e1e" stroke-width="2"/>
<text x="125" y="207" font-family="Arial, sans-serif" font-size="22" fill="#1e1e1e">RideLog</text>
<line x1="760" y1="115" x2="880" y2="78" stroke="#1e1e1e" stroke-width="2" marker-end="url(#arrow)"/>
<text x="900" y="84" font-family="Arial, sans-serif" font-size="22" fill="#1e1e1e">browser</text>
<line x1="720" y1="200" x2="880" y2="188" stroke="#1e1e1e" stroke-width="2" marker-end="url(#arrow)"/>
<text x="900" y="194" font-family="Arial, sans-serif" font-size="22" fill="#1e1e1e">navbar</text>
<rect x="130" y="260" width="540" height="360" rx="8" fill="#e7f5ff" stroke="#1e1e1e" stroke-width="2"/>
<line x1="670" y1="440" x2="880" y2="282" stroke="#1e1e1e" stroke-width="2" marker-end="url(#arrow)"/>
<text x="900" y="292" font-family="Arial, sans-serif" font-size="22" fill="#1e1e1e">ride form</text>
<rect x="170" y="310" width="190" height="120" rx="8" fill="#e7f5ff" stroke="#1e1e1e" stroke-width="2"/>
<line x1="360" y1="370" x2="880" y2="362" stroke="#1e1e1e" stroke-width="2" marker-end="url(#arrow)"/>
<text x="900" y="372" font-family="Arial, sans-serif" font-size="22" fill="#1e1e1e">photo upload</text>
<rect x="395" y="310" width="225" height="120" rx="8" fill="#e7f5ff" stroke="#1e1e1e" stroke-width="2"/>
<line x1="620" y1="370" x2="880" y2="437" stroke="#1e1e1e" stroke-width="2" marker-end="url(#arrow)"/>
<text x="900" y="447" font-family="Arial, sans-serif" font-size="22" fill="#1e1e1e">ride statistics</text>
<rect x="170" y="465" width="450" height="85" rx="8" fill="#e7f5ff" stroke="#1e1e1e" stroke-width="2"/>
<line x1="620" y1="507.5" x2="880" y2="517" stroke="#1e1e1e" stroke-width="2" marker-end="url(#arrow)"/>
<text x="900" y="527" font-family="Arial, sans-serif" font-size="22" fill="#1e1e1e">title and description</text>
<rect x="415" y="570" width="205" height="40" rx="8" fill="#e7f5ff" stroke="#1e1e1e" stroke-width="2"/>
<line x1="620" y1="590" x2="880" y2="587" stroke="#1e1e1e" stroke-width="2" marker-end="url(#arrow)"/>
<text x="900" y="597" font-family="Arial, sans-serif" font-size="22" fill="#1e1e1e">save / cancel buttons</text>
</svg>
